<svg width="200" height="200" viewBox="0 0 200 200" fill="none" xmlns="http://www.w3.org/2000/svg">
<path d="M100 200C155.228 200 200 155.228 200 100C200 44.7715 155.228 0 100 0C44.7715 0 0 44.7715 0 100C0 155.228 44.7715 200 100 200Z" fill="#D35400"/>
<path d="M57.5303 145H54.8495L53.502 136.542C57.2197 136.542 59.867 135.734 61.444 134.119C63.0305 132.504 63.8237 129.938 63.8237 126.421V55H73.6294V128.7C73.6294 134.377 72.3057 138.515 69.6584 141.115C67.011 143.705 62.9683 145 57.5303 145ZM99.9499 127.252H90.1442V55H99.9499V84.8328H136.692V55H146.498V127.252H136.692V94.1223H99.9499V127.252Z" fill="#252525"/>
</svg>
